<svg width="93" height="87" viewBox="0 0 93 87" fill="none" xmlns="http://www.w3.org/2000/svg">
<path d="M46.5 23.024C46.5 29.1304 44.0768 34.9866 39.7635 39.3045C35.4501 43.6223 29.6 46.0481 23.5 46.0481C17.4 46.0481 11.5499 43.6223 7.23654 39.3045C2.92321 34.9866 0.5 29.1304 0.5 23.024C0.5 16.9177 2.92321 11.0614 7.23654 6.74358C11.5499 2.42574 17.4 0 23.5 0C29.6 0 35.4501 2.42574 39.7635 6.74358C44.0768 11.0614 46.5 16.9177 46.5 23.024ZM23.5 10.2329C22.8222 10.2329 22.1722 10.5024 21.6929 10.9822C21.2137 11.462 20.9444 12.1126 20.9444 12.7911V23.024C20.9444 23.7025 21.2137 24.3532 21.6929 24.833C22.1722 25.3127 22.8222 25.5823 23.5 25.5823H31.1667C31.8444 25.5823 32.4945 25.3127 32.9737 24.833C33.453 24.3532 33.7222 23.7025 33.7222 23.024C33.7222 22.3455 33.453 21.6949 32.9737 21.2151C32.4945 20.7353 31.8444 20.4658 31.1667 20.4658H26.0556V12.7911C26.0556 12.1126 25.7863 11.462 25.3071 10.9822C24.8278 10.5024 24.1778 10.2329 23.5 10.2329ZM10.7222 59.1564C10.7222 55.5084 12.2658 52.1469 14.8009 49.7933C17.6105 50.7056 20.5463 51.1684 23.5 51.1645C33.0067 51.1645 41.4144 46.4369 46.5 39.2074V46.0532H66.2953L59.9627 34.6486C59.2988 33.4536 58.3282 32.4579 57.151 31.7643C55.9739 31.0708 54.633 30.7047 53.2671 30.7038H50.5531C51.0243 29.0312 51.3392 27.3183 51.4936 25.5874H53.262C55.5413 25.5869 57.7793 26.1967 59.7438 27.3536C61.7084 28.5106 63.3281 30.1725 64.4349 32.1671L72.3162 46.3755L83.0138 49.2305C85.7338 49.9564 88.1383 51.5612 89.8536 53.7955C91.569 56.0299 92.4993 58.7687 92.5 61.5867V67.7981C92.5002 69.5147 92.0074 71.1951 91.0804 72.6393C90.1533 74.0834 88.8312 75.2304 87.2713 75.9435C86.862 78.937 85.4074 81.6888 83.1651 83.7113C80.9229 85.7339 78.0378 86.8966 75.0211 86.9934C72.0045 87.0903 69.0509 86.115 66.6838 84.2404C64.3167 82.3658 62.6889 79.713 62.0889 76.7519H41.1333C40.5333 79.713 38.9055 82.3658 36.5384 84.2404C34.1713 86.115 31.2178 87.0903 28.2011 86.9934C25.1844 86.8966 22.2993 85.7339 20.0571 83.7113C17.8148 81.6888 16.3602 78.937 15.9509 75.9435C14.3911 75.2304 13.0689 74.0834 12.1419 72.6393C11.2149 71.1951 10.7221 69.5147 10.7222 67.7981V59.1564ZM23.638 51.1696L23.6227 51.2208L21.6396 51.712C19.9812 52.1272 18.509 53.0854 17.457 54.4342C16.405 55.7831 15.8335 57.4452 15.8333 59.1564V67.7981C15.8333 68.6167 16.0889 69.3842 16.5336 70.0084C17.451 67.3598 19.2119 65.0861 21.5456 63.5367C23.8793 61.9872 26.6568 61.2478 29.4511 61.4321C32.2454 61.6163 34.9019 62.714 37.0125 64.5564C39.1231 66.3989 40.5708 68.8842 41.1333 71.6303H62.0889C62.6471 68.8811 64.0928 66.3918 66.2032 64.5458C68.3136 62.6999 70.9718 61.5997 73.7682 61.4148C76.5647 61.2298 79.3443 61.9703 81.679 63.5223C84.0137 65.0742 85.774 67.3514 86.6887 70.0033C87.1454 69.357 87.3901 68.5846 87.3889 67.793V61.5816C87.3886 59.8912 86.8309 58.2482 85.8023 56.9076C84.7737 55.5671 83.3317 54.604 81.7002 54.1679L70.4404 51.1645H23.638V51.1696ZM28.6111 66.519C27.6043 66.519 26.6074 66.7175 25.6772 67.1032C24.747 67.4889 23.9019 68.0542 23.19 68.7668C22.478 69.4795 21.9133 70.3256 21.528 71.2567C21.1427 72.1878 20.9444 73.1858 20.9444 74.1937C20.9444 75.2015 21.1427 76.1995 21.528 77.1306C21.9133 78.0618 22.478 78.9078 23.19 79.6205C23.9019 80.3331 24.747 80.8985 25.6772 81.2841C26.6074 81.6698 27.6043 81.8683 28.6111 81.8683C30.6444 81.8683 32.5945 81.0598 34.0323 79.6205C35.47 78.1812 36.2778 76.2291 36.2778 74.1937C36.2778 72.1582 35.47 70.2061 34.0323 68.7668C32.5945 67.3276 30.6444 66.519 28.6111 66.519ZM74.6111 66.519C73.6043 66.519 72.6074 66.7175 71.6772 67.1032C70.747 67.4889 69.9019 68.0542 69.19 68.7668C68.478 69.4795 67.9133 70.3256 67.528 71.2567C67.1427 72.1878 66.9444 73.1858 66.9444 74.1937C66.9444 75.2015 67.1427 76.1995 67.528 77.1306C67.9133 78.0618 68.478 78.9078 69.19 79.6205C69.9019 80.3331 70.747 80.8985 71.6772 81.2841C72.6074 81.6698 73.6043 81.8683 74.6111 81.8683C76.6444 81.8683 78.5945 81.0598 80.0323 79.6205C81.47 78.1812 82.2778 76.2291 82.2778 74.1937C82.2778 72.1582 81.47 70.2061 80.0323 68.7668C78.5945 67.3276 76.6444 66.519 74.6111 66.519Z" fill="#449C40"/>
</svg>
