<svg width="36" height="35" viewBox="0 0 36 35" fill="none" xmlns="http://www.w3.org/2000/svg">
<path d="M30.3713 5.1211C27.9234 2.67511 24.8049 1.00969 21.4102 0.335418C18.0155 -0.338852 14.497 0.00831972 11.2996 1.33303C8.10226 2.65774 5.36965 4.9005 3.44734 7.7777C1.52503 10.6549 0.499352 14.0373 0.5 17.4972C0.5 22.1377 2.34344 26.5883 5.62504 29.8704C8.90664 33.1526 13.3578 34.9977 17.9998 35C20.297 35.001 22.5721 34.5521 24.6966 33.6787C26.8144 32.7851 28.7408 31.4932 30.3713 29.8734C31.9973 28.2482 33.2871 26.3188 34.1671 24.1953C35.0471 22.0718 35.5 19.7958 35.5 17.4972C35.5 15.1987 35.0471 12.9227 34.1671 10.7992C33.2871 8.67569 31.9973 6.74626 30.3713 5.1211ZM29.1377 28.6225C26.6177 31.1525 23.311 32.7493 19.7621 33.1502V21.5933H23.0753C23.5427 21.5933 23.9909 21.4076 24.3214 21.0773C24.6519 20.7469 24.8376 20.2988 24.8376 19.8315C24.8376 19.3643 24.6519 18.9162 24.3214 18.5858C23.9909 18.2554 23.5427 18.0698 23.0753 18.0698H19.7621V13.2427C19.7621 12.7754 19.9478 12.3273 20.2783 11.9969C20.6088 11.6665 21.0571 11.4809 21.5245 11.4809H23.6392C24.1066 11.4809 24.5549 11.2953 24.8854 10.9649C25.2159 10.6346 25.4016 10.1865 25.4016 9.71921C25.4016 9.25197 25.2159 8.80387 24.8854 8.47348C24.5549 8.14309 24.1066 7.95748 23.6392 7.95748H20.6433C19.4748 7.95748 18.3542 8.42151 17.5279 9.24748C16.7017 10.0734 16.2375 11.1937 16.2375 12.3618V18.0698H12.942C12.4746 18.0698 12.0263 18.2554 11.6958 18.5858C11.3653 18.9162 11.1797 19.3643 11.1797 19.8315C11.1797 20.2988 11.3653 20.7469 11.6958 21.0773C12.0263 21.4076 12.4746 21.5933 12.942 21.5933H16.2375V33.1502C12.9647 32.7769 9.89189 31.3852 7.45314 29.1716C5.01439 26.958 3.33295 24.0345 2.64633 20.8138C1.95971 17.5932 2.3026 14.2384 3.62658 11.2231C4.95057 8.20787 7.18871 5.68464 10.0249 4.00984C12.8611 2.33504 16.1519 1.59331 19.4326 1.88942C22.7133 2.18554 25.8181 3.50453 28.3083 5.66009C30.7985 7.81565 32.5483 10.6988 33.3106 13.9024C34.0729 17.1059 33.8092 20.468 32.5566 23.5135C31.7588 25.4219 30.5976 27.157 29.1377 28.6225Z" fill="white"/>
</svg>
