<svg width="37" height="48" viewBox="0 0 37 48" fill="none" xmlns="http://www.w3.org/2000/svg">
<path fill-rule="evenodd" clip-rule="evenodd" d="M18.5 46.2535L20.3404 44.2475C22.4288 41.9341 24.3071 39.7391 25.9783 37.6514L27.3579 35.8909C33.1183 28.3834 36 22.4249 36 18.0208C36 8.6203 28.1658 1 18.5 1C8.83417 1 1 8.6203 1 18.0208C1 22.4249 3.88167 28.3834 9.64208 35.8909L11.0217 37.6514C13.4059 40.6064 15.9003 43.4737 18.5 46.2535Z" stroke="#449C40" stroke-width="2" stroke-linecap="round" stroke-linejoin="round"/>
<path d="M18.5007 24.981C22.5277 24.981 25.7923 21.8232 25.7923 17.9278C25.7923 14.0324 22.5277 10.8746 18.5007 10.8746C14.4736 10.8746 11.209 14.0324 11.209 17.9278C11.209 21.8232 14.4736 24.981 18.5007 24.981Z" stroke="#449C40" stroke-width="2" stroke-linecap="round" stroke-linejoin="round"/>
</svg>
