<svg width="93" height="103" viewBox="0 0 93 103" fill="none" xmlns="http://www.w3.org/2000/svg">
<path fill-rule="evenodd" clip-rule="evenodd" d="M55.6209 7.49959H32.3732C31.6359 11.1015 29.857 14.4075 27.2573 17.0073C24.6576 19.607 21.3515 21.3859 17.7496 22.1231C17.7482 23.2064 17.7482 24.2896 17.7496 25.3728C21.3515 26.1101 24.6576 27.889 27.2573 30.4887C29.857 33.0884 31.6359 36.3945 32.3732 39.9964H55.6209C56.3581 36.3945 58.137 33.0884 60.7368 30.4887C63.3365 27.889 66.6425 26.1101 70.2445 25.3728C70.2455 24.2896 70.2455 23.2064 70.2445 22.1231C66.6425 21.3859 63.3365 19.607 60.7368 17.0073C58.137 14.4075 56.3581 11.1015 55.6209 7.49959ZM58.6456 0.015321C57.2707 0.000322456 55.8109 0.000322351 54.256 0.000322351H33.738C32.1882 0.000322351 30.7233 0.000322456 29.3535 0.015321C29.0804 -0.00927378 28.8055 -0.00424489 28.5336 0.0303196C26.2738 0.0703157 24.269 0.165306 22.5291 0.400283C19.3895 0.820241 16.5547 1.75015 14.28 4.02493C12.0002 6.3047 11.0703 9.13942 10.6503 12.2741C10.4153 14.0189 10.3203 16.0237 10.2803 18.2835C10.2461 18.5538 10.2411 18.8271 10.2653 19.0984C10.2503 20.4733 10.2504 21.9382 10.2504 23.488V24.008C10.2504 25.5578 10.2503 27.0227 10.2653 28.3975C10.2411 28.6689 10.2461 28.9421 10.2803 29.2125C10.3203 31.4772 10.4153 33.477 10.6503 35.2169C11.0703 38.3565 12.0002 41.1913 14.28 43.4661C16.5547 45.7458 19.3895 46.6757 22.5291 47.0957C24.269 47.3307 26.2738 47.4257 28.5336 47.4657C28.8055 47.5007 29.0804 47.5058 29.3535 47.4807C30.7233 47.4957 32.1882 47.4957 33.738 47.4957H54.256C55.8059 47.4957 57.2707 47.4957 58.6456 47.4807C58.917 47.5054 59.1902 47.5004 59.4605 47.4657C61.7253 47.4257 63.7301 47.3307 65.4649 47.0957C68.6046 46.6757 71.4393 45.7458 73.7141 43.4661C75.9939 41.1913 76.9238 38.3565 77.3438 35.2169C77.5807 33.224 77.7042 31.2193 77.7137 29.2125C77.7477 28.9421 77.7527 28.6689 77.7287 28.3975C77.7437 27.0227 77.7437 25.5578 77.7437 24.008V23.488C77.7437 21.9382 77.7437 20.4733 77.7287 19.0984C77.7535 18.8271 77.7485 18.5538 77.7137 18.2835C77.7033 16.2767 77.5798 14.272 77.3438 12.2791C76.9238 9.13942 75.9939 6.3047 73.7191 4.02993C71.4393 1.75015 68.6046 0.820241 65.4699 0.400283C63.4753 0.163927 61.469 0.0404098 59.4605 0.0303196C59.1902 -0.0040398 58.917 -0.00906865 58.6456 0.015321ZM63.4651 7.71956C64.0312 9.21529 64.9087 10.5736 66.0396 11.7045C67.1704 12.8353 68.5287 13.7128 70.0245 14.2789C69.993 13.9449 69.9547 13.6115 69.9095 13.279C69.6045 10.9692 69.0646 9.97934 68.4096 9.32941C67.7597 8.67947 66.7748 8.14452 64.47 7.82955C64.1375 7.78613 63.8041 7.74946 63.4701 7.71956H63.4651ZM70.0245 33.2171C68.5287 33.7831 67.1704 34.6607 66.0396 35.7915C64.9087 36.9224 64.0312 38.2807 63.4651 39.7764C63.8151 39.7464 64.1501 39.7064 64.465 39.6664C66.7748 39.3515 67.7647 38.8165 68.4146 38.1666C69.0646 37.5166 69.6045 36.5267 69.9145 34.217C69.9545 33.902 69.9945 33.567 70.0245 33.2171ZM24.5289 39.7764C23.9629 38.2807 23.0853 36.9224 21.9545 35.7915C20.8236 34.6607 19.4653 33.7831 17.9696 33.2171C18.0046 33.567 18.0396 33.902 18.0846 34.217C18.3945 36.5267 18.9295 37.5166 19.5844 38.1666C20.2344 38.8165 21.2193 39.3515 23.524 39.6664C23.844 39.7064 24.179 39.7464 24.5289 39.7764ZM17.9696 14.2789C19.4653 13.7128 20.8236 12.8353 21.9545 11.7045C23.0853 10.5736 23.9629 9.21529 24.5289 7.71956C24.179 7.74956 23.844 7.78956 23.529 7.83455C21.2193 8.14452 20.2294 8.67947 19.5794 9.3344C18.9295 9.98434 18.3946 10.9692 18.0796 13.274L17.9696 14.2789ZM43.997 22.4981C43.6655 22.4981 43.3476 22.6298 43.1132 22.8642C42.8788 23.0986 42.7472 23.4165 42.7472 23.748C42.7472 24.0795 42.8788 24.3974 43.1132 24.6318C43.3476 24.8662 43.6655 24.9979 43.997 24.9979C44.3285 24.9979 44.6464 24.8662 44.8808 24.6318C45.1152 24.3974 45.2469 24.0795 45.2469 23.748C45.2469 23.4165 45.1152 23.0986 44.8808 22.8642C44.6464 22.6298 44.3285 22.4981 43.997 22.4981ZM35.2479 23.748C35.2479 21.4276 36.1697 19.2022 37.8105 17.5614C39.4512 15.9206 41.6766 14.9988 43.997 14.9988C46.3174 14.9988 48.5428 15.9206 50.1836 17.5614C51.8244 19.2022 52.7462 21.4276 52.7462 23.748C52.7462 26.0684 51.8244 28.2938 50.1836 29.9346C48.5428 31.5753 46.3174 32.4971 43.997 32.4971C41.6766 32.4971 39.4512 31.5753 37.8105 29.9346C36.1697 28.2938 35.2479 26.0684 35.2479 23.748ZM27.4187 60.9843C36.7477 59.1795 46.7318 59.5845 54.816 64.404C55.9459 65.0789 57.0158 65.9238 57.9407 66.9637C59.8205 69.0785 60.7904 71.6983 60.8354 74.328C61.7903 73.7131 62.7502 73.0281 63.7201 72.2932L72.7592 65.4689C75.0224 63.8058 77.7575 62.909 80.5659 62.909C83.3744 62.909 86.1095 63.8058 88.3727 65.4689C92.5523 68.6186 94.2221 74.283 91.2274 79.0826C89.1026 82.4872 85.8979 87.2017 82.6432 90.2215C79.3436 93.2711 74.659 95.8409 71.1144 97.5507C66.8048 99.6305 62.1553 100.78 57.6307 101.51C48.3816 103.01 38.7625 102.78 29.6234 100.895C24.9105 99.9255 20.1116 99.4347 15.2999 99.4305H4.00096C3.0065 99.4305 2.05277 99.0355 1.34957 98.3323C0.646382 97.6291 0.251333 96.6754 0.251333 95.6809C0.251333 94.6865 0.646382 93.7327 1.34957 93.0295C2.05277 92.3263 3.0065 91.9313 4.00096 91.9313H15.2999C20.6093 91.9313 25.9738 92.4862 31.1383 93.5511C39.4683 95.2604 48.0389 95.4484 56.4358 94.1061C60.5754 93.4361 64.445 92.4412 67.8547 90.7964C71.2693 89.1466 75.109 86.9768 77.5437 84.722C80.0085 82.4372 82.7632 78.4826 84.868 75.1129C85.5029 74.093 85.413 72.6282 83.8581 71.4533C82.0083 70.0534 79.1236 70.0534 77.2788 71.4533L68.2447 78.2776C64.635 81.0024 60.1954 83.9171 54.691 84.797C54.1143 84.8883 53.5359 84.9684 52.9562 85.037C49.4531 85.4411 45.9172 85.4746 42.4072 85.1369C41.9082 85.1025 41.4212 84.9685 40.9748 84.743C40.5284 84.5175 40.1316 84.2049 39.8079 83.8237C39.4841 83.4425 39.2398 83.0004 39.0895 82.5234C38.9391 82.0464 38.8857 81.5441 38.9324 81.0462C38.9791 80.5482 39.125 80.0646 39.3614 79.6239C39.5978 79.1831 39.92 78.7942 40.309 78.4798C40.698 78.1655 41.1459 77.9321 41.6265 77.7935C42.107 77.6549 42.6105 77.6138 43.1071 77.6727C45.8806 77.9421 48.6738 77.937 51.4463 77.6577L51.5963 77.6427C52.0627 77.3532 52.4591 76.9638 52.7569 76.5026C53.0546 76.0413 53.2462 75.5198 53.318 74.9755C53.3897 74.4312 53.3398 73.8778 53.1717 73.3552C53.0037 72.8325 52.7217 72.3537 52.3462 71.9532C51.9479 71.5147 51.4841 71.1403 50.9714 70.8434C45.0669 67.3187 37.1777 66.7338 28.8435 68.3436C20.7031 69.9813 12.9859 73.274 6.17075 78.0176C5.76895 78.3026 5.31495 78.5056 4.83469 78.6151C4.35443 78.7246 3.8573 78.7384 3.3717 78.6558C2.8861 78.5731 2.42153 78.3957 2.00451 78.1335C1.5875 77.8713 1.22621 77.5295 0.941266 77.1277C0.656325 76.7259 0.453316 76.2719 0.34383 75.7917C0.234343 75.3114 0.220523 74.8143 0.303159 74.3287C0.385795 73.8431 0.56327 73.3785 0.825447 72.9615C1.08763 72.5445 1.42937 72.1832 1.83118 71.8983C9.51866 66.5387 18.2295 62.8232 27.4187 60.9843Z" fill="#449C40"/>
</svg>
