<svg width="35" height="35" viewBox="0 0 35 35" fill="none" xmlns="http://www.w3.org/2000/svg">
<path d="M33.6843 24.0083L25.0764 20.2665C24.7427 20.1262 24.3783 20.069 24.0161 20.0999C23.6539 20.1308 23.3053 20.2489 23.0019 20.4436C22.9776 20.4585 22.9545 20.4751 22.9326 20.4932L18.4117 24.2368C18.3111 24.2964 18.1969 24.331 18.0793 24.3375C17.9616 24.3439 17.8441 24.3221 17.7372 24.274C14.7768 22.8856 11.7124 19.9318 10.2832 17.0896C10.2327 16.9865 10.2092 16.8729 10.2149 16.7589C10.2207 16.6448 10.2554 16.534 10.316 16.4362L14.1807 11.9718C14.1989 11.9506 14.2153 11.9276 14.2317 11.9046C14.4315 11.6102 14.5528 11.2723 14.5846 10.9211C14.6164 10.5699 14.5578 10.2166 14.414 9.89287L10.5549 1.54506C10.3685 1.12227 10.0461 0.769595 9.63584 0.54001C9.22562 0.310424 8.74979 0.216318 8.27982 0.271822C5.98578 0.565642 3.88028 1.66064 2.35659 3.35228C0.832901 5.04393 -0.00477602 7.21654 2.04848e-05 9.46432C2.04848e-05 23.1353 11.4481 34.2563 25.5212 34.2563C27.8351 34.2609 30.0716 33.4472 31.813 31.967C33.5544 30.4869 34.6816 28.4415 34.9841 26.2131C35.0408 25.7586 34.9449 25.2985 34.7107 24.9012C34.4765 24.504 34.1165 24.1908 33.6843 24.0083ZM33.5421 26.036C33.2847 27.9232 32.3285 29.6548 30.8523 30.907C29.3761 32.1592 27.481 32.8462 25.5212 32.8396C12.2538 32.8396 1.45837 22.3526 1.45837 9.46432C1.45158 7.56056 2.1588 5.71957 3.4478 4.28554C4.7368 2.85151 6.51932 1.92263 8.46212 1.67257C8.49125 1.67081 8.52048 1.67081 8.54962 1.67257C8.69347 1.67376 8.83375 1.71626 8.9528 1.79472C9.07184 1.87318 9.16433 1.9841 9.21864 2.11351L13.0669 10.4613C13.1118 10.5633 13.1314 10.6742 13.1241 10.7849C13.1168 10.8956 13.0828 11.0032 13.0249 11.0988L9.16213 15.5614C9.1439 15.5844 9.12567 15.6056 9.10926 15.6304C8.90347 15.9361 8.78227 16.2882 8.75736 16.6527C8.73245 17.0172 8.80468 17.3817 8.96707 17.7112C10.5512 20.8615 13.8179 24.0119 17.0974 25.5508C17.4389 25.7075 17.8163 25.7757 18.1929 25.7487C18.5695 25.7217 18.9326 25.6004 19.2466 25.3967L19.3141 25.3471L23.8405 21.6071C23.9373 21.5496 24.0468 21.5153 24.1599 21.507C24.2731 21.4987 24.3866 21.5166 24.4912 21.5592L33.0974 25.3064C33.2426 25.3651 33.3644 25.4679 33.4445 25.5994C33.5247 25.7309 33.5589 25.884 33.5421 26.036Z" fill="#449C40"/>
</svg>
